<svg xmlns="http://www.w3.org/2000/svg" width="180" height="180" viewBox="-30 -30 180 180" enable-background="new -30 -30 180 180"><path d="M29.271 103.535l-.007-.006c-.418-.299-.833-.596-1.246-.905l-.062-.05c-.369-.278-.734-.562-1.094-.847l-.248-.199-.908-.747-.261-.219c-.315-.271-.628-.537-.938-.818l-.167-.149c-.744-.673-1.466-1.365-2.169-2.071l-.174-.176c-.285-.291-.568-.59-.847-.888l-.239-.258c-.264-.281-.528-.574-.783-.864l-.214-.24c-.308-.346-.609-.706-.908-1.063l-.038-.041c-.329-.396-.646-.791-.961-1.198l-.067-.092c-.276-.351-.545-.709-.813-1.07l-.212-.282-.657-.92-.219-.325-.657-.971-.162-.252c-.537-.83-1.054-1.669-1.543-2.533l-.163-.289c-.184-.329-.367-.66-.546-.997l-.207-.384-.485-.958-.188-.378c-.184-.375-.363-.747-.534-1.131l-.092-.202c-.208-.45-.406-.908-.601-1.37l-.097-.238c-.155-.369-.307-.744-.453-1.122l-.16-.425c-.123-.322-.245-.652-.36-.975l-.161-.455-.342-1.022-.124-.396c-.297-.943-.57-1.904-.816-2.865l-.104-.428c-.084-.344-.165-.683-.242-1.031l-.113-.508-.202-.994-.093-.498c-.072-.381-.137-.766-.198-1.146l-.059-.343c-.077-.497-.147-.996-.21-1.494l-.04-.352c-.046-.387-.09-.773-.126-1.155l-.047-.529-.082-1.022-.033-.545-.05-1.061-.021-.485c-.013-.52-.025-1.028-.025-1.546 0-.517.011-1.032.025-1.543l.021-.489c.01-.351.031-.707.05-1.059l.033-.556.082-1.017.047-.528c.036-.387.08-.773.126-1.157l.04-.354c.063-.5.132-1 .21-1.496l.059-.343c.062-.381.126-.764.198-1.144l.093-.5c.064-.333.129-.663.202-.995l.113-.51c.075-.344.156-.687.242-1.032l.105-.428c.246-.967.52-1.919.816-2.863l.124-.395.342-1.02.161-.458.36-.975.16-.425c.146-.378.299-.753.453-1.127l.095-.235c.195-.462.396-.918.602-1.372l.091-.198c.173-.38.351-.755.534-1.131l.187-.375.487-.959.206-.384c.178-.332.361-.664.546-.995l.163-.29c.492-.862 1.006-1.71 1.543-2.535l.162-.249c.214-.331.435-.657.657-.976l.219-.323.657-.919.21-.284c.265-.36.536-.718.813-1.069l.066-.091c.315-.405.634-.803.961-1.195l.041-.047c.3-.359.601-.716.908-1.062l.214-.241.785-.864.238-.26c.281-.295.562-.591.849-.882l.176-.177c.703-.712 1.429-1.404 2.167-2.07l.167-.151c.309-.276.623-.549.938-.819l.261-.219c.297-.252.603-.502.908-.75l.248-.197c.361-.287.726-.574 1.094-.849l.064-.05c.409-.311.826-.612 1.246-.908l.006-.007.014-.008c2.625-1.858 5.427-3.481 8.371-4.846l.003-.002-4.866-8.424c-2.926 1.407-5.727 3.035-8.385 4.863-16.54 11.37-27.411 30.423-27.411 51.961s10.871 40.592 27.409 51.954c2.657 1.828 5.46 3.454 8.384 4.862l4.864-8.425c-2.95-1.365-5.758-2.991-8.386-4.86zM95.593 8.052c-2.655-1.828-5.458-3.458-8.385-4.863l-4.863 8.427c2.956 1.366 5.76 2.996 8.392 4.856 13.646 9.659 22.575 25.572 22.575 43.532 0 17.96-8.929 33.869-22.579 43.531l-9.762-16.906-7.268-12.575-8.107-14.049-5.596-9.692-5.595 9.691-7.977 13.818c2.31 2.273 5.183 3.967 8.386 4.855l5.187-8.98 8.446 14.628 6.86 11.883 7.037 12.19 4.858 8.422c2.928-1.405 5.729-3.034 8.387-4.862 16.542-11.364 27.411-30.416 27.411-51.954s-10.869-40.591-27.407-51.952zM60 98.774c-21.376 0-38.77-17.396-38.77-38.77h-9.692c0 26.72 21.744 48.467 48.465 48.467 5.361 0 10.529-.879 15.349-2.496l-4.978-8.619c-3.305.917-6.779 1.418-10.374 1.418zM108.441 58.614l-.012-.308-.055-1.134-.018-.236c-.031-.438-.057-.875-.097-1.314v-.006c-1.28-14.022-8.678-26.948-20.329-35.194-2.396-1.694-4.963-3.179-7.623-4.414l-.472-.219c-6.057-2.724-12.773-4.247-19.835-4.247v9.694c21.379 0 38.769 17.394 38.769 38.769 0 10.815-4.454 20.6-11.619 27.646l4.972 8.604c9.97-8.851 15.935-21.478 16.32-34.86l.006-.097c.013-.425.021-.857.021-1.286-.003-.474-.018-.936-.028-1.398zM60 84.236c-13.364 0-24.23-10.871-24.23-24.232h-9.694c0 18.705 15.219 33.921 33.924 33.921 2.707 0 5.341-.328 7.854-.93l-5.155-8.917c-.881.101-1.785.158-2.699.158zM60 26.081v9.692c13.361 0 24.231 10.867 24.231 24.231 0 5.378-1.767 10.349-4.739 14.376l5.144 8.907c5.753-6.082 9.286-14.276 9.286-23.282-.005-18.705-15.216-33.924-33.922-33.924z"/></svg>