<svg xmlns="http://www.w3.org/2000/svg" width="180" height="180" viewBox="-30 -30 180 180" enable-background="new -30 -30 180 180"><path d="M23.652 89.006l15.286-15.286 3.924-3.926-5.191-5.194-3.926 3.926-15.286 15.29c-2.87 2.865-7.518 2.865-10.385 0-2.868-2.869-2.868-7.519 0-10.387l3.635-3.638-5.195-5.191-3.633 3.633c-5.737 5.736-5.737 15.038 0 20.773 5.735 5.736 15.033 5.736 20.771 0zM74.022 100.95l-5.194-5.194-3.926 3.926-15.288 15.288c-2.388 2.385-6.004 2.78-8.808 1.189-.562-.319-1.098-.71-1.58-1.189-2.866-2.871-2.868-7.521 0-10.389l3.635-3.633-5.192-5.194-3.634 3.635v.001c-5.736 5.735-5.736 15.037 0 20.771.469.469.966.896 1.481 1.29 5.758 4.402 14.024 3.975 19.29-1.29l15.286-15.288 3.93-3.923zM50.998 105.97l2.25 2.25 5.193-5.192-2.25-2.253-16.962-16.96-3.636-3.636-5.191 5.192 3.633 3.635zM105.175 69.791l-5.193-5.191-3.061 3.061-16.149 16.154-3.636 3.632 5.192 5.193 3.633-3.634 16.155-16.153zM74.022 38.636l-5.194-5.193-3.061 3.06-16.153 16.155-3.635 3.634 5.193 5.195 3.635-3.638 16.154-16.153zM84.406 77.063l-22.847-22.847 5.192-5.192 22.847 22.847zM58.422 71.848l-3.617-3.613-15.577-15.577-3.616-3.617c-.135.11-.264.229-.39.353l-4.822 4.821 3.634 3.634 15.581 15.578 3.634 3.635 4.821-4.821c.126-.125.242-.254.352-.393zM61.559 85.371l5.02 5.021 14.194 14.192c2.868 2.865 2.868 7.518 0 10.386l-.308.277c-2.88 2.582-7.307 2.494-10.078-.277l-3.637-3.636-5.191 5.194 3.634 3.636c5.64 5.637 14.719 5.726 20.47.279l.302-.279c5.733-5.736 5.733-15.036 0-20.772l-14.195-14.194-4.998-5.001c-.138.11-.27.228-.396.352l-4.817 4.822zM27.266 40.694l-3.614-3.615c-2.87-2.868-2.87-7.518 0-10.386s7.516-2.868 10.383 0l19.213 19.213 5.191-5.191-19.211-19.214c-5.736-5.738-15.034-5.738-20.769 0-5.736 5.736-5.736 15.033 0 20.771l3.633 3.634 4.822-4.822c.125-.125.242-.253.352-.39zM96.347 16.305l-14.02 14.02-5.192-5.192 14.02-14.02zM39.228 42.276l-19.267 19.267-5.194-5.194 19.267-19.267zM70.384 73.425l-19.266 19.266-5.194-5.194 19.266-19.266zM-2.308 42.274l29.596 29.596-5.194 5.194-29.596-29.596zM127.509 47.444l-14.02 14.02-5.192-5.192 14.02-14.02zM39.23.73l29.598 29.6 43.099 43.098c2.672 2.67 2.851 6.894.539 9.777-.167.211-.345.41-.539.606-2.867 2.868-7.521 2.865-10.386 0l-3.636-3.637-5.191 5.192 3.633 3.638c5.733 5.733 15.033 5.733 20.771 0 .193-.196.379-.395.558-.594 5.17-5.769 4.985-14.637-.558-20.178l-43.096-43.096-29.6-29.598-5.192 5.192z"/></svg>