<?xml version="1.0" encoding="utf-8"?>
<!-- Generator: Adobe Illustrator 16.0.0, SVG Export Plug-In . SVG Version: 6.00 Build 0)  -->
<!DOCTYPE svg PUBLIC "-//W3C//DTD SVG 1.1//EN" "http://www.w3.org/Graphics/SVG/1.1/DTD/svg11.dtd">
<svg version="1.1" id="Layer_1" xmlns="http://www.w3.org/2000/svg" xmlns:xlink="http://www.w3.org/1999/xlink" x="0px" y="0px"
	 width="180px" height="180px" viewBox="-30 -30 180 180" enable-background="new -30 -30 180 180" xml:space="preserve">
<g>
	<path d="M23.652,89.006L38.938,73.72l3.924-3.926L37.671,64.6l-3.926,3.926l-15.286,15.29c-2.87,2.865-7.518,2.865-10.385,0
		c-2.868-2.869-2.868-7.519,0-10.387l0,0l3.635-3.638L6.514,64.6l-3.633,3.633l0,0c-5.737,5.736-5.737,15.038,0,20.773
		C8.616,94.742,17.914,94.742,23.652,89.006z"/>
	<path d="M74.022,100.95l-5.194-5.194l-3.926,3.926L49.614,114.97c-2.388,2.385-6.004,2.78-8.808,1.189
		c-0.562-0.319-1.098-0.71-1.58-1.189c-2.866-2.871-2.868-7.521,0-10.389l0,0l3.635-3.633l-5.192-5.194l-3.634,3.635v0.001
		c-5.736,5.735-5.736,15.037,0,20.771c0.469,0.469,0.966,0.896,1.481,1.29c5.758,4.402,14.024,3.975,19.29-1.29l15.286-15.288
		L74.022,100.95z"/>
	<polygon points="50.998,105.97 53.248,108.22 58.441,103.028 56.191,100.775 39.229,83.815 35.593,80.179 30.402,85.371 
		34.035,89.006 	"/>
	<polygon points="105.175,69.791 99.982,64.6 96.921,67.661 80.772,83.815 77.136,87.447 82.328,92.64 85.961,89.006 
		102.116,72.853 	"/>
	<polygon points="74.022,38.636 68.828,33.443 65.767,36.503 49.614,52.658 45.979,56.292 51.172,61.487 54.807,57.849 
		70.961,41.696 	"/>
	<rect x="59.425" y="59.371" transform="matrix(-0.7071 -0.7071 0.7071 -0.7071 84.4442 161.064)" width="32.311" height="7.342"/>
	<path d="M58.422,71.848l-3.617-3.613L39.228,52.658l-3.616-3.617c-0.135,0.11-0.264,0.229-0.39,0.353l-4.822,4.821l3.634,3.634
		l15.581,15.578l3.634,3.635l4.821-4.821C58.196,72.116,58.312,71.987,58.422,71.848z"/>
	<path d="M61.559,85.371l5.02,5.021l14.194,14.192c2.868,2.865,2.868,7.518,0,10.386c-0.097,0.096-0.205,0.185-0.308,0.277
		c-2.88,2.582-7.307,2.494-10.078-0.277l-3.637-3.636l-5.191,5.194l3.634,3.636c5.64,5.637,14.719,5.726,20.47,0.279
		c0.103-0.092,0.205-0.183,0.302-0.279c5.733-5.736,5.733-15.036,0-20.772L71.77,85.198l-4.998-5.001
		c-0.138,0.11-0.27,0.228-0.396,0.352L61.559,85.371z"/>
	<path d="M27.266,40.694l-3.614-3.615c-2.87-2.868-2.87-7.518,0-10.386s7.516-2.868,10.383,0l19.213,19.213l5.191-5.191
		L39.228,21.501c-5.736-5.738-15.034-5.738-20.769,0c-5.736,5.736-5.736,15.033,0,20.771l3.633,3.634l4.822-4.822
		C27.039,40.959,27.156,40.831,27.266,40.694z"/>
	
		<rect x="76.826" y="17.047" transform="matrix(-0.7071 0.7071 -0.7071 -0.7071 162.7247 -25.9651)" width="19.828" height="7.342"/>
	<rect x="13.373" y="45.64" transform="matrix(-0.7071 0.7071 -0.7071 -0.7071 80.9561 65.0919)" width="27.248" height="7.346"/>
	<rect x="44.53" y="76.79" transform="matrix(-0.7071 0.7071 -0.7071 -0.7071 156.1691 96.2365)" width="27.246" height="7.345"/>
	<rect x="-11.035" y="55.997" transform="matrix(0.7071 0.7071 -0.7071 0.7071 45.0903 10.481)" width="41.856" height="7.346"/>
	<rect x="107.989" y="48.193" transform="matrix(-0.7071 0.7071 -0.7071 -0.7071 237.945 5.1622)" width="19.828" height="7.343"/>
	<path d="M39.23,0.73l29.598,29.6l0,0l43.099,43.098c2.672,2.67,2.851,6.894,0.539,9.777c-0.167,0.211-0.345,0.41-0.539,0.606
		c-2.867,2.868-7.521,2.865-10.386,0l-3.636-3.637l-5.191,5.192l3.633,3.638c5.733,5.733,15.033,5.733,20.771,0
		c0.193-0.196,0.379-0.395,0.558-0.594c5.17-5.769,4.985-14.637-0.558-20.178L74.022,25.136l-29.6-29.598L39.23,0.73z"/>
</g>
</svg>
