<?xml version="1.0" encoding="utf-8"?>
<!-- Generator: Adobe Illustrator 16.0.0, SVG Export Plug-In . SVG Version: 6.00 Build 0)  -->
<!DOCTYPE svg PUBLIC "-//W3C//DTD SVG 1.1//EN" "http://www.w3.org/Graphics/SVG/1.1/DTD/svg11.dtd">
<svg version="1.1" id="Layer_1" xmlns="http://www.w3.org/2000/svg" xmlns:xlink="http://www.w3.org/1999/xlink" x="0px" y="0px"
	 width="180px" height="180px" viewBox="-30 -30 180 180" enable-background="new -30 -30 180 180" xml:space="preserve">
<g>
	<polygon points="46.95,49.125 46.95,36.073 -5.25,36.073 -5.25,49.125 14.325,49.125 14.325,90.453 7.8,90.453 7.8,55.65 
		-5.25,55.65 -5.25,103.5 27.375,103.5 27.375,49.125 	"/>
	<polygon points="-5.25,16.5 -5.25,29.549 53.474,29.549 53.474,90.453 46.95,90.453 46.95,55.65 33.901,55.65 33.901,103.5 
		66.524,103.5 66.524,29.549 125.25,29.549 125.25,16.5 	"/>
	<polygon points="112.199,90.453 105.676,90.453 105.676,36.073 92.625,36.073 92.625,90.453 86.101,90.453 86.101,36.073 
		73.051,36.073 73.051,103.5 125.25,103.5 125.25,36.073 112.199,36.073 	"/>
</g>
</svg>
