<?xml version="1.0" encoding="utf-8"?>
<!-- Generator: Adobe Illustrator 16.0.0, SVG Export Plug-In . SVG Version: 6.00 Build 0)  -->
<!DOCTYPE svg PUBLIC "-//W3C//DTD SVG 1.1//EN" "http://www.w3.org/Graphics/SVG/1.1/DTD/svg11.dtd">
<svg version="1.1" id="Layer_1" xmlns="http://www.w3.org/2000/svg" xmlns:xlink="http://www.w3.org/1999/xlink" x="0px" y="0px"
	 width="180px" height="180px" viewBox="-30 -30 180 180" enable-background="new -30 -30 180 180" xml:space="preserve">
<g>
	<path d="M94.637,63.553v49.738c0,1.959-1.594,3.548-3.554,3.548h-7.992V94.638H72.432v22.201h-7.992
		c-1.962,0-3.551-1.593-3.551-3.551V63.553H50.229v49.738c0,7.834,6.375,14.209,14.214,14.209h26.643
		c7.839,0,14.217-6.375,14.217-14.209V63.553H94.637z"/>
	<g>
		<path d="M67.994,77.763c0,1.96-1.594,3.554-3.554,3.554h-1.775v10.658h1.775c7.834,0,14.209-6.378,14.209-14.213V38.685h8.886
			V28.027H32.467v10.656h35.527V77.763z"/>
		<path d="M48.454,81.316h-1.777c-1.958,0-3.554-1.594-3.554-3.554V63.551H32.467v14.212c0,7.834,6.375,14.212,14.211,14.212h1.778
			V81.316H48.454z"/>
	</g>
	<g>
		<polygon points="50.228,26.25 60.89,26.25 60.89,3.156 69.77,3.156 69.77,-7.5 14.7,-7.5 14.7,3.156 50.228,3.156 		"/>
		<path d="M60.89,42.239v-1.776H50.228v1.776c0,1.958-1.591,3.55-3.551,3.55H28.912c-1.958,0-3.551-1.593-3.551-3.55V28.026H14.7
			v14.211c0,7.834,6.377,14.21,14.213,14.21h17.764C54.512,56.448,60.89,50.07,60.89,42.239z"/>
	</g>
</g>
</svg>
