<?xml version="1.0" encoding="utf-8"?>
<!-- Generator: Adobe Illustrator 16.0.0, SVG Export Plug-In . SVG Version: 6.00 Build 0)  -->
<!DOCTYPE svg PUBLIC "-//W3C//DTD SVG 1.1//EN" "http://www.w3.org/Graphics/SVG/1.1/DTD/svg11.dtd">
<svg version="1.1" id="Layer_1" xmlns="http://www.w3.org/2000/svg" xmlns:xlink="http://www.w3.org/1999/xlink" x="0px" y="0px"
	 width="120px" height="120px" viewBox="-30 -10 120 120" enable-background="new -30 -10 120 120" xml:space="preserve">
<g>
	<polygon fill="#010101" points="40,0 20,0 0,0 0,20 20,20 40,20 40,25 40,30 20,50 40,50 60,30 60,30 60,30 60,25 60,20 60,0 	"/>
	<polygon fill="#010101" points="40,50 40,60 40,80 20,80 20,60 20,50 20,40 20,20 0,40 0,60 0,80 0,100 20,100 40,100 60,100 
		60,80 60,60 60,50 40,50 40.001,50 	"/>
</g>
</svg>
