<?xml version="1.0" encoding="utf-8"?>
<!-- Generator: Adobe Illustrator 16.0.0, SVG Export Plug-In . SVG Version: 6.00 Build 0)  -->
<!DOCTYPE svg PUBLIC "-//W3C//DTD SVG 1.1//EN" "http://www.w3.org/Graphics/SVG/1.1/DTD/svg11.dtd">
<svg version="1.1" id="Layer_1" xmlns="http://www.w3.org/2000/svg" xmlns:xlink="http://www.w3.org/1999/xlink" x="0px" y="0px"
	 width="120px" height="120px" viewBox="-30 -10 120 120" enable-background="new -30 -10 120 120" xml:space="preserve">
<g>
	<polygon fill="#010101" points="40,0 20,0 0,0 0,20 20,20 40,20 40,25 40,30 20,50 40,50 60,30 60,30 60,30 60,25 60,20 60,0 	"/>
	<g>
		<path fill="#010101" d="M37.096,87.269l-0.238-0.238c-0.06-0.059-0.117-0.045-0.117-0.045h-1.551v2.205h1.562
			c0.014,0,0.062,0,0.104-0.045l0.238-0.238c0.062-0.059,0.045-0.119,0.045-0.119v-1.396C37.141,87.386,37.156,87.328,37.096,87.269
			z"/>
		<polygon fill="#010101" points="23.751,91.781 25.555,91.781 24.661,88.728 		"/>
		<path fill="#010101" d="M13.879,91.14c-0.031-0.031-0.075-0.045-0.089-0.045h-1.562v1.922h1.697l0.209-0.209
			c0.029-0.047,0.044-0.076,0.044-0.105v-1.207c0,0,0-0.061-0.044-0.104L13.879,91.14z"/>
		<path fill="#010101" d="M13.879,87.029c-0.031-0.045-0.075-0.045-0.089-0.045h-1.562v1.922h1.697l0.209-0.207
			c0.029-0.045,0.044-0.076,0.044-0.105v-1.209c0,0,0-0.059-0.044-0.104L13.879,87.029z"/>
		<path fill="#010101" d="M40,50L40,50v10v20.002H20V60V50V40V20L0,39.999v20v20v20h20h20h20V80V60V50H40z M16.365,89.144
			c0,0,0.015,0.209-0.164,0.387l-0.58,0.598l0.58,0.58c0.105,0.105,0.135,0.193,0.149,0.269h0.015v2.844
			c0,0,0.015,0.212-0.164,0.388l-0.833,0.836c-0.178,0.18-0.388,0.162-0.388,0.162h-4.736c-0.119,0-0.209-0.086-0.209-0.209v-9.99
			c0-0.121,0.089-0.209,0.209-0.209h4.736c0,0,0.209-0.014,0.388,0.162l0.833,0.838c0.179,0.178,0.164,0.387,0.164,0.387V89.144z
			 M28.473,95.205h-1.698c-0.118,0-0.223-0.104-0.267-0.207l-0.358-1.207h-2.993L22.8,94.998c-0.045,0.104-0.149,0.207-0.267,0.207
			h-1.698c-0.12,0-0.254-0.104-0.224-0.207l2.948-9.978v-0.019c0.061-0.133,0.104-0.207,0.208-0.207h0.656h0.462h0.655
			c0.104,0,0.163,0.074,0.209,0.207v0.019c0.983,3.319,1.965,6.653,2.948,9.978C28.726,95.101,28.591,95.205,28.473,95.205z
			 M39.598,95.205h-1.996c-0.117,0-0.224-0.104-0.267-0.207l-1.46-3.621h-0.686v3.621c0,0.104-0.09,0.207-0.211,0.207h-1.771
			c-0.104,0-0.211-0.104-0.211-0.207v-9.994c0-0.117,0.104-0.207,0.211-0.207h4.735c0,0,0.207-0.029,0.388,0.147l0.846,0.851
			c0.181,0.178,0.149,0.414,0.149,0.414v3.785c0,0,0.031,0.207-0.149,0.387l-0.846,0.85l-0.046,0.029l1.52,3.738
			C39.837,95.101,39.701,95.205,39.598,95.205z M49.963,86.777c0,0.119-0.105,0.209-0.211,0.209h-3.439v1.92h2.637
			c0.119,0,0.211,0.09,0.211,0.209v1.771c0,0.121-0.088,0.211-0.211,0.211h-2.637v1.92h3.439c0.105,0,0.211,0.088,0.211,0.209v1.771
			c0,0.119-0.105,0.209-0.211,0.209h-5.42c-0.118,0-0.21-0.086-0.21-0.209v-9.992c0-0.117,0.088-0.207,0.21-0.207h5.42
			c0.105,0,0.211,0.088,0.211,0.207V86.777L49.963,86.777z"/>
	</g>
</g>
</svg>
