<?xml version="1.0" encoding="utf-8"?>
<!-- Generator: Adobe Illustrator 16.0.0, SVG Export Plug-In . SVG Version: 6.00 Build 0)  -->
<!DOCTYPE svg PUBLIC "-//W3C//DTD SVG 1.1//EN" "http://www.w3.org/Graphics/SVG/1.1/DTD/svg11.dtd">
<svg version="1.1" id="Layer_1" xmlns="http://www.w3.org/2000/svg" xmlns:xlink="http://www.w3.org/1999/xlink" x="0px" y="0px"
	 width="480px" height="270px" viewBox="-180 -75 480 270" enable-background="new -180 -75 480 270" xml:space="preserve">
<g>
	<polygon fill="#010101" points="82.5,-52.5 37.5,-52.5 -7.5,-52.5 -7.5,-7.5 37.5,-7.5 82.5,-7.5 82.5,3.75 82.5,15 37.5,60.001 
		82.5,60.001 127.5,15 127.5,15 127.5,15 127.5,3.75 127.5,-7.5 127.5,-52.5 	"/>
	<g>
		<path fill="#010101" d="M75.966,143.856l-0.536-0.536c-0.135-0.132-0.262-0.101-0.262-0.101h-3.491v4.961h3.516
			c0.03,0,0.141,0,0.232-0.101l0.536-0.536c0.141-0.132,0.102-0.269,0.102-0.269v-3.142
			C76.066,144.12,76.102,143.988,75.966,143.856z"/>
		<polygon fill="#010101" points="45.939,154.008 49.999,154.008 47.987,147.14 		"/>
		<path fill="#010101" d="M23.728,152.566c-0.069-0.07-0.168-0.101-0.2-0.101h-3.515v4.324h3.818l0.47-0.471
			c0.066-0.105,0.1-0.171,0.1-0.237v-2.716c0,0,0-0.136-0.1-0.232L23.728,152.566z"/>
		<path fill="#010101" d="M23.728,143.316c-0.069-0.102-0.168-0.102-0.2-0.102h-3.515v4.324h3.818l0.47-0.466
			c0.066-0.101,0.1-0.171,0.1-0.237v-2.72c0,0,0-0.132-0.1-0.233L23.728,143.316z"/>
		<path fill="#010101" d="M82.5,60.001L82.5,60.001V82.5v45.004h-45V82.5V60.001V37.5v-45l-45,44.998V82.5v45v45h45h45h45v-45v-45
			V60.001H82.5z M29.322,148.075c0,0,0.033,0.471-0.369,0.87l-1.305,1.345l1.305,1.306c0.236,0.237,0.303,0.435,0.335,0.606h0.034
			v6.398c0,0,0.033,0.479-0.369,0.874l-1.875,1.881c-0.401,0.404-0.874,0.365-0.874,0.365H15.549c-0.268,0-0.47-0.193-0.47-0.471
			v-22.478c0-0.272,0.2-0.471,0.47-0.471h10.655c0,0,0.47-0.03,0.874,0.365l1.875,1.885c0.402,0.4,0.369,0.87,0.369,0.87V148.075z
			 M56.564,161.712h-3.821c-0.265,0-0.502-0.233-0.601-0.466l-0.805-2.716h-6.734l-0.804,2.716c-0.101,0.232-0.335,0.466-0.6,0.466
			h-3.821c-0.27,0-0.571-0.233-0.504-0.466l6.634-22.452v-0.039c0.137-0.299,0.234-0.466,0.468-0.466h1.475h1.04h1.474
			c0.234,0,0.367,0.167,0.47,0.466v0.039c2.212,7.471,4.421,14.973,6.633,22.452C57.134,161.479,56.829,161.712,56.564,161.712z
			 M81.595,161.712h-4.491c-0.264,0-0.503-0.233-0.6-0.466l-3.285-8.147h-1.542v8.147c0,0.232-0.202,0.466-0.475,0.466h-3.986
			c-0.232,0-0.475-0.233-0.475-0.466v-22.487c0-0.264,0.233-0.466,0.475-0.466h10.652c0,0,0.466-0.065,0.875,0.33l1.902,1.916
			c0.409,0.399,0.336,0.932,0.336,0.932v8.517c0,0,0.068,0.466-0.336,0.87l-1.902,1.911l-0.104,0.066l3.421,8.411
			C82.133,161.479,81.828,161.712,81.595,161.712z M104.917,142.749c0,0.269-0.237,0.471-0.475,0.471h-7.739v4.319h5.936
			c0.266,0,0.475,0.202,0.475,0.471v3.985c0,0.272-0.198,0.475-0.475,0.475h-5.936v4.32h7.739c0.237,0,0.475,0.197,0.475,0.47v3.986
			c0,0.268-0.237,0.47-0.475,0.47H92.247c-0.266,0-0.473-0.193-0.473-0.47v-22.482c0-0.264,0.198-0.466,0.473-0.466h12.195
			c0.237,0,0.475,0.197,0.475,0.466V142.749L104.917,142.749z"/>
	</g>
</g>
</svg>
