<?xml version="1.0" encoding="utf-8"?>
<!-- Generator: Adobe Illustrator 16.0.0, SVG Export Plug-In . SVG Version: 6.00 Build 0)  -->
<!DOCTYPE svg PUBLIC "-//W3C//DTD SVG 1.1//EN" "http://www.w3.org/Graphics/SVG/1.1/DTD/svg11.dtd">
<svg version="1.1" id="Layer_1" xmlns="http://www.w3.org/2000/svg" xmlns:xlink="http://www.w3.org/1999/xlink" x="0px" y="0px"
	 width="100px" height="100px" viewBox="-4 -4 100 100" enable-background="new -4 -4 100 100" xml:space="preserve">
<g>
	<path d="M40.794,3.211L40.794,3.211c-0.074,0.008-0.146,0.015-0.22,0.021c-0.138,0.016-0.273,0.031-0.409,0.047
		c-0.234,0.026-0.473,0.054-0.707,0.085c-0.131,0.018-0.264,0.037-0.396,0.056c-0.235,0.032-0.476,0.067-0.711,0.104
		c-0.127,0.021-0.252,0.042-0.379,0.062c-0.242,0.04-0.482,0.082-0.725,0.127c-0.119,0.021-0.236,0.045-0.357,0.068
		c-0.246,0.046-0.492,0.097-0.736,0.148c-0.11,0.022-0.223,0.047-0.334,0.072c-0.254,0.055-0.506,0.112-0.756,0.173
		c-0.103,0.023-0.203,0.05-0.305,0.074c-0.259,0.064-0.52,0.13-0.777,0.199c-0.092,0.025-0.183,0.049-0.272,0.075
		c-0.269,0.073-0.535,0.149-0.801,0.228c-0.082,0.023-0.162,0.048-0.243,0.073c-0.276,0.083-0.551,0.17-0.824,0.257
		c-0.069,0.023-0.14,0.046-0.21,0.068c-0.284,0.094-0.568,0.191-0.852,0.292c-0.057,0.021-0.113,0.039-0.17,0.06
		c-0.298,0.106-0.593,0.215-0.887,0.328c-0.043,0.016-0.085,0.033-0.128,0.048c-0.311,0.12-0.619,0.244-0.927,0.37
		c-0.023,0.011-0.049,0.021-0.074,0.031C28.267,6.415,27.94,6.556,27.615,6.7c-0.003,0.001-0.007,0.002-0.01,0.003v9.593
		c3.956-2.334,8.421-3.898,13.188-4.491v68.385c-1.563-0.195-3.095-0.492-4.587-0.893V58.352h-8.601v17.35v9.592
		c0.003,0.002,0.007,0.004,0.01,0.006c0.323,0.146,0.649,0.283,0.979,0.42c0.024,0.014,0.05,0.021,0.074,0.029
		c0.308,0.127,0.616,0.25,0.927,0.371c0.042,0.021,0.085,0.031,0.128,0.049c0.294,0.111,0.589,0.225,0.887,0.33
		c0.057,0.021,0.113,0.037,0.17,0.062c0.282,0.1,0.566,0.193,0.853,0.289c0.07,0.02,0.141,0.047,0.209,0.064
		c0.273,0.09,0.548,0.174,0.824,0.258c0.081,0.025,0.162,0.053,0.243,0.072c0.266,0.076,0.532,0.152,0.801,0.23
		c0.091,0.021,0.183,0.051,0.272,0.072c0.259,0.066,0.519,0.137,0.777,0.197c0.104,0.023,0.204,0.053,0.305,0.074
		c0.25,0.061,0.502,0.117,0.756,0.172c0.111,0.023,0.222,0.051,0.334,0.072c0.02,0.002,0.035,0.008,0.054,0.012l0,0
		c0.228,0.049,0.456,0.094,0.683,0.139c0.121,0.021,0.239,0.047,0.357,0.066c0.24,0.045,0.48,0.088,0.725,0.127
		c0.127,0.02,0.252,0.043,0.379,0.062c0.236,0.037,0.477,0.07,0.711,0.105c0.131,0.02,0.265,0.039,0.396,0.057
		c0.234,0.029,0.471,0.059,0.706,0.084c0.136,0.018,0.271,0.031,0.41,0.051c0.071,0.004,0.146,0.012,0.22,0.02v0.002
		C42.208,88.932,43.642,89,45.095,89c1.451,0,2.885-0.068,4.299-0.213v-8.59V11.804V3.212C47.979,3.073,46.546,3,45.095,3
		C43.642,3,42.208,3.073,40.794,3.211z"/>
	<path d="M16.713,13.702C11.309,18.457,7.105,24.544,4.62,31.453l8.216,2.4c0.992-2.635,2.304-5.112,3.877-7.395v39.086
		c-1.533-2.223-2.816-4.633-3.801-7.191H3.899c2.342,7.816,6.844,14.695,12.812,19.943v0.004c2.607,2.293,5.492,4.273,8.601,5.889
		v-9.967V17.776V7.811c-3.107,1.613-5.992,3.595-8.601,5.887L16.713,13.702L16.713,13.702z"/>
	<path d="M88.079,44.867c-0.002-0.127-0.012-0.252-0.014-0.378c-0.012-0.25-0.019-0.5-0.03-0.748
		c-0.009-0.147-0.021-0.294-0.024-0.44c-0.018-0.228-0.027-0.453-0.046-0.681c-0.014-0.154-0.028-0.308-0.041-0.462
		c-0.022-0.217-0.036-0.434-0.062-0.65c-0.018-0.158-0.036-0.312-0.055-0.47c-0.023-0.212-0.05-0.423-0.076-0.633
		c-0.021-0.159-0.041-0.315-0.062-0.474c-0.031-0.209-0.062-0.416-0.094-0.623c-0.021-0.158-0.053-0.313-0.076-0.471
		c-0.034-0.206-0.068-0.413-0.107-0.618c-0.028-0.155-0.06-0.31-0.09-0.464c-0.039-0.206-0.08-0.411-0.121-0.615
		c-0.033-0.154-0.064-0.305-0.102-0.457c-0.046-0.205-0.091-0.408-0.141-0.613c-0.035-0.149-0.072-0.299-0.107-0.449
		c-0.053-0.204-0.104-0.408-0.154-0.612c-0.041-0.146-0.076-0.292-0.117-0.436c-0.06-0.206-0.115-0.411-0.174-0.617
		c-0.044-0.142-0.084-0.282-0.128-0.423c-0.062-0.207-0.127-0.414-0.19-0.619c-0.045-0.137-0.09-0.273-0.135-0.408
		c-0.068-0.208-0.143-0.417-0.213-0.625c-0.046-0.13-0.092-0.26-0.139-0.391c-0.076-0.212-0.152-0.423-0.232-0.633
		c-0.045-0.124-0.096-0.248-0.145-0.371c-0.083-0.215-0.169-0.431-0.256-0.644c-0.047-0.116-0.094-0.232-0.143-0.348
		c-0.094-0.22-0.188-0.44-0.281-0.658c-0.047-0.107-0.092-0.216-0.143-0.323c-0.103-0.228-0.203-0.453-0.311-0.677
		c-0.047-0.097-0.09-0.195-0.137-0.291c-0.11-0.235-0.229-0.469-0.342-0.703c-0.044-0.084-0.082-0.168-0.128-0.253
		c-0.125-0.249-0.255-0.493-0.385-0.738c-0.035-0.068-0.067-0.136-0.104-0.203c-0.146-0.266-0.291-0.531-0.441-0.794
		c-0.023-0.044-0.049-0.089-0.07-0.133c-0.171-0.298-0.345-0.594-0.523-0.887c-0.006-0.009-0.01-0.018-0.016-0.028
		c-1.302-2.157-2.789-4.19-4.438-6.078c-0.006-0.005-0.012-0.009-0.016-0.015c-0.229-0.26-0.459-0.52-0.695-0.776
		c-0.021-0.02-0.037-0.041-0.057-0.06c-0.222-0.24-0.443-0.479-0.673-0.713c-0.024-0.03-0.056-0.059-0.084-0.088
		c-0.217-0.224-0.435-0.446-0.659-0.666c-0.035-0.036-0.07-0.071-0.107-0.107c-0.217-0.212-0.436-0.422-0.657-0.629
		c-0.015-0.014-0.026-0.028-0.045-0.042l-5.823,6.241C75.373,27.162,79.558,36.089,79.558,46c0,2.663-0.303,5.252-0.875,7.743
		L68.104,28.021l-7.816,29.267V5.764c-2.745-1.037-5.621-1.803-8.6-2.261v76.326v8.668c0.295-0.045,0.588-0.094,0.883-0.145
		c0.169-0.027,0.34-0.062,0.51-0.096c0.119-0.02,0.236-0.047,0.354-0.066c0.221-0.043,0.438-0.086,0.653-0.133
		c0.031-0.008,0.063-0.018,0.093-0.021c0.25-0.055,0.5-0.105,0.75-0.166c1.998-0.467,3.943-1.072,5.824-1.811l8.633-32.312
		l8.336,20.264c2.246-2.617,4.186-5.506,5.756-8.607c0.179-0.35,0.35-0.697,0.516-1.051c0.021-0.045,0.042-0.09,0.062-0.137
		c0.147-0.312,0.287-0.627,0.428-0.945c0.025-0.057,0.051-0.111,0.074-0.168c0.14-0.322,0.275-0.646,0.405-0.969
		c0.019-0.043,0.036-0.086,0.052-0.129c0.448-1.113,0.853-2.25,1.205-3.41c0.021-0.062,0.037-0.127,0.055-0.188
		c0.097-0.312,0.186-0.623,0.271-0.939c0.026-0.098,0.055-0.191,0.078-0.287c0.077-0.285,0.15-0.574,0.223-0.867
		c0.026-0.104,0.053-0.207,0.076-0.312c0.071-0.295,0.139-0.594,0.202-0.893c0.021-0.096,0.041-0.186,0.06-0.277
		c0.08-0.373,0.153-0.746,0.225-1.129c0.003-0.014,0.005-0.023,0.009-0.037c0.068-0.398,0.138-0.799,0.196-1.205
		c0.014-0.08,0.021-0.162,0.033-0.244c0.043-0.311,0.086-0.617,0.125-0.93c0.016-0.133,0.027-0.266,0.045-0.395
		c0.027-0.268,0.061-0.531,0.082-0.799c0.015-0.145,0.027-0.293,0.041-0.439c0.021-0.258,0.039-0.52,0.058-0.775
		c0.015-0.146,0.021-0.293,0.026-0.443c0.018-0.275,0.027-0.553,0.037-0.83c0.006-0.127,0.013-0.256,0.017-0.385
		c0.015-0.404,0.021-0.811,0.021-1.217C88.095,45.621,88.088,45.243,88.079,44.867z"/>
</g>
</svg>
