<?xml version="1.0" encoding="utf-8"?>
<!-- Generator: Adobe Illustrator 16.0.0, SVG Export Plug-In . SVG Version: 6.00 Build 0)  -->
<!DOCTYPE svg PUBLIC "-//W3C//DTD SVG 1.1//EN" "http://www.w3.org/Graphics/SVG/1.1/DTD/svg11.dtd">
<svg version="1.1" id="Layer_1" xmlns="http://www.w3.org/2000/svg" xmlns:xlink="http://www.w3.org/1999/xlink" x="0px" y="0px"
	 width="180px" height="180px" viewBox="-30 -30 180 180" enable-background="new -30 -30 180 180" xml:space="preserve">
<g>
	<path d="M29.271,103.535L29.271,103.535c-0.003-0.003-0.007-0.006-0.007-0.006c-0.418-0.299-0.833-0.596-1.246-0.905
		c-0.021-0.021-0.044-0.032-0.062-0.05c-0.369-0.278-0.734-0.562-1.094-0.847c-0.084-0.062-0.164-0.132-0.248-0.199
		c-0.305-0.246-0.609-0.498-0.908-0.747c-0.088-0.076-0.177-0.149-0.261-0.219c-0.315-0.271-0.628-0.537-0.938-0.818
		c-0.059-0.049-0.112-0.1-0.167-0.149c-0.744-0.673-1.466-1.365-2.169-2.071c-0.06-0.062-0.116-0.117-0.174-0.176
		c-0.285-0.291-0.568-0.59-0.847-0.888c-0.083-0.088-0.156-0.167-0.239-0.258c-0.264-0.281-0.528-0.574-0.783-0.864
		c-0.072-0.082-0.146-0.155-0.214-0.24c-0.308-0.346-0.609-0.706-0.908-1.063c-0.012-0.015-0.027-0.029-0.038-0.041
		c-0.329-0.396-0.646-0.791-0.961-1.198c-0.027-0.032-0.046-0.057-0.067-0.092c-0.276-0.351-0.545-0.709-0.813-1.07
		c-0.07-0.092-0.141-0.189-0.212-0.282c-0.22-0.305-0.44-0.61-0.657-0.92c-0.073-0.1-0.15-0.214-0.219-0.325
		c-0.22-0.322-0.439-0.645-0.657-0.971c-0.057-0.084-0.109-0.157-0.162-0.252c-0.537-0.83-1.054-1.669-1.543-2.533
		c-0.054-0.094-0.108-0.193-0.163-0.289c-0.184-0.329-0.367-0.66-0.546-0.997c-0.067-0.126-0.135-0.255-0.207-0.384
		c-0.162-0.316-0.327-0.639-0.485-0.958c-0.063-0.126-0.125-0.252-0.188-0.378c-0.184-0.375-0.363-0.747-0.534-1.131
		c-0.031-0.07-0.062-0.132-0.092-0.202c-0.208-0.45-0.406-0.908-0.601-1.37c-0.032-0.08-0.064-0.154-0.097-0.238
		c-0.155-0.369-0.307-0.744-0.453-1.122c-0.056-0.146-0.11-0.282-0.16-0.425c-0.123-0.322-0.245-0.652-0.36-0.975
		c-0.055-0.153-0.109-0.305-0.161-0.455c-0.119-0.34-0.229-0.678-0.342-1.022c-0.04-0.132-0.087-0.267-0.124-0.396
		c-0.297-0.943-0.57-1.904-0.816-2.865c-0.036-0.146-0.07-0.281-0.104-0.428c-0.084-0.344-0.165-0.683-0.242-1.031
		c-0.038-0.164-0.076-0.34-0.113-0.508c-0.069-0.333-0.138-0.662-0.202-0.994c-0.031-0.162-0.064-0.335-0.093-0.498
		c-0.072-0.381-0.137-0.766-0.198-1.146c-0.017-0.111-0.039-0.226-0.059-0.343c-0.077-0.497-0.147-0.996-0.21-1.494
		c-0.018-0.114-0.028-0.234-0.04-0.352c-0.046-0.387-0.09-0.773-0.126-1.155c-0.017-0.175-0.032-0.348-0.047-0.529
		c-0.032-0.34-0.055-0.672-0.082-1.022c-0.013-0.176-0.026-0.36-0.033-0.545c-0.021-0.352-0.035-0.709-0.05-1.061
		c-0.004-0.158-0.015-0.328-0.021-0.485c-0.013-0.52-0.025-1.028-0.025-1.546c0-0.517,0.011-1.032,0.025-1.543
		c0.005-0.159,0.014-0.329,0.021-0.489c0.01-0.351,0.031-0.707,0.05-1.059c0.009-0.185,0.023-0.371,0.033-0.556
		c0.027-0.337,0.05-0.676,0.082-1.017c0.017-0.176,0.031-0.349,0.047-0.528c0.036-0.387,0.08-0.773,0.126-1.157
		c0.013-0.117,0.027-0.238,0.04-0.354c0.063-0.5,0.132-1,0.21-1.496c0.018-0.116,0.039-0.229,0.059-0.343
		c0.062-0.381,0.126-0.764,0.198-1.144c0.031-0.165,0.062-0.333,0.093-0.5c0.064-0.333,0.129-0.663,0.202-0.995
		c0.034-0.171,0.071-0.34,0.113-0.51c0.075-0.344,0.156-0.687,0.242-1.032C8.277,47.144,8.31,47,8.349,46.856
		c0.246-0.967,0.52-1.919,0.816-2.863c0.041-0.13,0.087-0.267,0.124-0.395c0.113-0.342,0.225-0.684,0.342-1.02
		c0.056-0.152,0.107-0.305,0.161-0.458c0.117-0.327,0.238-0.652,0.36-0.975c0.053-0.143,0.106-0.282,0.16-0.425
		c0.146-0.378,0.299-0.753,0.453-1.127c0.032-0.081,0.063-0.156,0.095-0.235c0.195-0.462,0.396-0.918,0.602-1.372
		c0.031-0.065,0.062-0.133,0.091-0.198c0.173-0.38,0.351-0.755,0.534-1.131c0.062-0.125,0.125-0.251,0.187-0.375
		c0.16-0.321,0.322-0.641,0.487-0.959c0.066-0.127,0.14-0.256,0.206-0.384c0.178-0.332,0.361-0.664,0.546-0.995
		c0.057-0.094,0.11-0.195,0.163-0.29c0.492-0.862,1.006-1.71,1.543-2.535c0.056-0.087,0.109-0.168,0.162-0.249
		c0.214-0.331,0.435-0.657,0.657-0.976c0.07-0.11,0.147-0.215,0.219-0.323c0.217-0.311,0.438-0.614,0.657-0.919
		c0.07-0.093,0.14-0.19,0.21-0.284c0.265-0.36,0.536-0.718,0.813-1.069c0.025-0.032,0.043-0.06,0.066-0.091
		c0.315-0.405,0.634-0.803,0.961-1.195c0.014-0.016,0.03-0.032,0.041-0.047c0.3-0.359,0.601-0.716,0.908-1.062
		c0.07-0.083,0.144-0.16,0.214-0.241c0.259-0.29,0.522-0.579,0.785-0.864c0.081-0.087,0.157-0.171,0.238-0.26
		c0.281-0.295,0.562-0.591,0.849-0.882c0.06-0.059,0.114-0.117,0.176-0.177c0.703-0.712,1.429-1.404,2.167-2.07
		c0.057-0.051,0.114-0.099,0.167-0.151c0.309-0.276,0.623-0.549,0.938-0.819c0.088-0.072,0.176-0.15,0.261-0.219
		c0.297-0.252,0.603-0.502,0.908-0.75c0.082-0.065,0.162-0.132,0.248-0.197c0.361-0.287,0.726-0.574,1.094-0.849
		c0.021-0.02,0.043-0.032,0.064-0.05c0.409-0.311,0.826-0.612,1.246-0.908c0.002-0.001,0.003-0.004,0.006-0.007
		c0.005-0.003,0.009-0.007,0.014-0.008c2.625-1.858,5.427-3.481,8.371-4.846c0.002,0,0.002-0.002,0.003-0.002L32.796,3.18
		c-2.926,1.407-5.727,3.035-8.385,4.863C7.871,19.413-3,38.466-3,60.004c0,21.538,10.871,40.592,27.409,51.954
		c2.657,1.828,5.46,3.454,8.384,4.862l4.864-8.425l0,0C34.707,107.03,31.899,105.404,29.271,103.535z"/>
	<path d="M95.593,8.052c-2.655-1.828-5.458-3.458-8.385-4.863l-4.863,8.427c2.956,1.366,5.76,2.996,8.392,4.856
		c13.646,9.659,22.575,25.572,22.575,43.532c0,17.96-8.929,33.869-22.579,43.531l-9.762-16.906l-7.268-12.575l0,0l-8.107-14.049
		L60,50.313l-5.595,9.691l-7.977,13.818c2.31,2.273,5.183,3.967,8.386,4.855l5.187-8.98l8.446,14.628l6.86,11.883l0,0l7.037,12.19
		l4.858,8.422c2.928-1.405,5.729-3.034,8.387-4.862C112.131,100.594,123,81.542,123,60.004C123,38.466,112.131,19.413,95.593,8.052z
		"/>
	<path d="M60,98.774c-21.376,0-38.77-17.396-38.77-38.77h-9.692c0,26.72,21.744,48.467,48.465,48.467
		c5.361,0,10.529-0.879,15.349-2.496l-4.978-8.619C67.069,98.273,63.595,98.774,60,98.774z"/>
	<path d="M108.441,58.614c-0.004-0.103-0.01-0.207-0.012-0.308c-0.02-0.378-0.031-0.754-0.055-1.134
		c-0.003-0.078-0.01-0.157-0.018-0.236c-0.031-0.438-0.057-0.875-0.097-1.314c0-0.003,0-0.006,0-0.006
		c-1.28-14.022-8.678-26.948-20.329-35.194c-2.396-1.694-4.963-3.179-7.623-4.414l-0.472-0.219
		C73.778,13.065,67.062,11.542,60,11.542v9.694c21.379,0,38.769,17.394,38.769,38.769c0,10.815-4.454,20.6-11.619,27.646
		l4.972,8.604c9.97-8.851,15.935-21.478,16.32-34.86c0.002-0.032,0.002-0.066,0.006-0.097c0.013-0.425,0.021-0.857,0.021-1.286
		C108.466,59.538,108.451,59.076,108.441,58.614z"/>
	<path d="M60,84.236c-13.364,0-24.23-10.871-24.23-24.232h-9.694c0,18.705,15.219,33.921,33.924,33.921
		c2.707,0,5.341-0.328,7.854-0.93l-5.155-8.917C61.818,84.179,60.914,84.236,60,84.236z"/>
	<path d="M60,26.081v9.692c13.361,0,24.231,10.867,24.231,24.231c0,5.378-1.767,10.349-4.739,14.376l5.144,8.907
		c5.753-6.082,9.286-14.276,9.286-23.282C93.917,41.3,78.706,26.081,60,26.081z"/>
</g>
</svg>
