<?xml version="1.0" encoding="utf-8"?>
<!-- Generator: Adobe Illustrator 16.0.0, SVG Export Plug-In . SVG Version: 6.00 Build 0)  -->
<!DOCTYPE svg PUBLIC "-//W3C//DTD SVG 1.1//EN" "http://www.w3.org/Graphics/SVG/1.1/DTD/svg11.dtd">
<svg version="1.1" id="Layer_1" xmlns="http://www.w3.org/2000/svg" xmlns:xlink="http://www.w3.org/1999/xlink" x="0px" y="0px"
	 width="120px" height="120px" viewBox="0 0 120 120" enable-background="new 0 0 120 120" xml:space="preserve">
<g>
	<path d="M55.797,18.213L55.797,18.213c-0.074,0.008-0.147,0.015-0.22,0.021c-0.137,0.016-0.273,0.031-0.409,0.047
		c-0.234,0.026-0.472,0.054-0.707,0.085c-0.131,0.018-0.263,0.037-0.395,0.056c-0.237,0.032-0.476,0.067-0.712,0.104
		c-0.126,0.021-0.252,0.042-0.378,0.062c-0.243,0.04-0.484,0.082-0.725,0.127c-0.119,0.021-0.237,0.045-0.357,0.068
		c-0.246,0.046-0.493,0.097-0.738,0.148c-0.11,0.022-0.222,0.047-0.333,0.072c-0.253,0.055-0.505,0.112-0.756,0.173
		c-0.102,0.023-0.203,0.05-0.304,0.074c-0.259,0.064-0.52,0.13-0.778,0.199c-0.091,0.025-0.182,0.049-0.273,0.075
		c-0.268,0.073-0.535,0.149-0.801,0.228c-0.082,0.023-0.162,0.048-0.243,0.073c-0.277,0.083-0.551,0.17-0.824,0.257
		c-0.07,0.023-0.14,0.046-0.21,0.068c-0.285,0.094-0.569,0.191-0.852,0.292c-0.056,0.021-0.113,0.039-0.169,0.06
		c-0.298,0.106-0.593,0.215-0.887,0.328c-0.043,0.016-0.085,0.033-0.128,0.048c-0.31,0.12-0.619,0.244-0.926,0.37
		c-0.024,0.011-0.049,0.021-0.075,0.031c-0.327,0.137-0.653,0.278-0.978,0.422c-0.003,0.001-0.006,0.002-0.009,0.003v9.593
		c3.956-2.334,8.421-3.898,13.187-4.491v68.383c-1.564-0.194-3.095-0.492-4.587-0.89V73.352h-8.6v17.35v9.592
		c0.003,0.002,0.006,0.004,0.009,0.005c0.324,0.146,0.65,0.283,0.978,0.42c0.025,0.011,0.05,0.021,0.075,0.03
		c0.307,0.127,0.616,0.25,0.926,0.371c0.042,0.018,0.085,0.03,0.128,0.049c0.294,0.11,0.589,0.222,0.887,0.329
		c0.056,0.02,0.113,0.038,0.169,0.06c0.283,0.1,0.567,0.196,0.853,0.289c0.07,0.022,0.14,0.047,0.209,0.068
		c0.273,0.089,0.547,0.174,0.824,0.258c0.081,0.024,0.162,0.05,0.243,0.071c0.266,0.077,0.533,0.153,0.801,0.228
		c0.091,0.025,0.183,0.052,0.273,0.075c0.258,0.066,0.518,0.134,0.778,0.198c0.102,0.023,0.204,0.052,0.304,0.074
		c0.251,0.061,0.503,0.116,0.756,0.172c0.111,0.023,0.221,0.05,0.333,0.072c0.02,0.002,0.036,0.008,0.054,0.012l0,0
		c0.228,0.048,0.456,0.094,0.683,0.138c0.12,0.022,0.239,0.047,0.357,0.067c0.24,0.045,0.482,0.087,0.725,0.126
		c0.126,0.021,0.252,0.043,0.378,0.063c0.237,0.037,0.476,0.071,0.712,0.106c0.131,0.021,0.263,0.038,0.395,0.057
		c0.235,0.029,0.471,0.058,0.706,0.084c0.136,0.016,0.272,0.031,0.41,0.049c0.073,0.005,0.147,0.013,0.22,0.02v0.002
		c1.414,0.143,2.848,0.214,4.3,0.214c1.452,0,2.885-0.071,4.299-0.214v-8.59V26.804v-8.591C62.983,18.073,61.549,18,60.097,18
		C58.645,18,57.211,18.073,55.797,18.213z"/>
	<path d="M31.716,28.702c-5.405,4.755-9.608,10.843-12.093,17.751l8.216,2.401c0.992-2.635,2.303-5.113,3.877-7.395v39.086
		c-1.534-2.223-2.817-4.632-3.801-7.191h-9.012c2.341,7.816,6.843,14.695,12.813,19.944v0.003c2.607,2.293,5.492,4.274,8.6,5.888
		v-9.966V32.778v-9.966c-3.108,1.613-5.993,3.595-8.6,5.887V28.702z"/>
	<path d="M103.082,59.867c-0.002-0.127-0.011-0.252-0.014-0.378c-0.011-0.25-0.017-0.5-0.03-0.748
		c-0.009-0.147-0.02-0.294-0.025-0.44c-0.017-0.228-0.027-0.454-0.045-0.681c-0.014-0.154-0.028-0.307-0.041-0.462
		c-0.022-0.217-0.037-0.434-0.062-0.65c-0.017-0.158-0.036-0.313-0.055-0.47c-0.023-0.212-0.048-0.423-0.075-0.633
		c-0.02-0.159-0.042-0.315-0.062-0.474c-0.032-0.208-0.062-0.416-0.094-0.622c-0.023-0.158-0.052-0.314-0.076-0.471
		c-0.034-0.206-0.07-0.413-0.108-0.618c-0.029-0.155-0.059-0.31-0.091-0.464c-0.039-0.206-0.079-0.411-0.121-0.615
		c-0.033-0.154-0.064-0.305-0.1-0.458c-0.046-0.204-0.091-0.408-0.14-0.612c-0.035-0.15-0.073-0.299-0.108-0.45
		c-0.053-0.204-0.104-0.408-0.156-0.612c-0.04-0.146-0.076-0.292-0.117-0.436c-0.058-0.206-0.114-0.411-0.174-0.617
		c-0.042-0.142-0.084-0.282-0.126-0.423c-0.062-0.207-0.127-0.414-0.192-0.619c-0.045-0.137-0.09-0.273-0.135-0.408
		c-0.068-0.208-0.141-0.417-0.212-0.625c-0.046-0.13-0.091-0.26-0.138-0.391c-0.076-0.212-0.153-0.423-0.233-0.633
		c-0.046-0.124-0.095-0.248-0.144-0.371c-0.083-0.215-0.169-0.431-0.256-0.644c-0.046-0.116-0.093-0.232-0.142-0.348
		c-0.093-0.22-0.188-0.44-0.281-0.658c-0.046-0.107-0.092-0.216-0.142-0.323c-0.103-0.228-0.204-0.453-0.311-0.677
		c-0.046-0.097-0.09-0.195-0.137-0.291c-0.11-0.235-0.227-0.469-0.342-0.703c-0.042-0.084-0.082-0.168-0.126-0.253
		c-0.126-0.249-0.255-0.493-0.385-0.738c-0.035-0.068-0.069-0.136-0.106-0.203c-0.146-0.266-0.29-0.531-0.441-0.794
		c-0.023-0.044-0.048-0.089-0.07-0.133c-0.171-0.298-0.345-0.594-0.523-0.887c-0.006-0.009-0.011-0.018-0.017-0.028
		c-1.301-2.157-2.789-4.19-4.437-6.078c-0.006-0.005-0.011-0.009-0.015-0.015c-0.228-0.26-0.46-0.52-0.695-0.776
		c-0.02-0.02-0.038-0.041-0.057-0.06c-0.221-0.24-0.444-0.479-0.672-0.713c-0.025-0.03-0.056-0.059-0.084-0.088
		c-0.217-0.224-0.435-0.446-0.66-0.666c-0.036-0.036-0.071-0.071-0.108-0.107c-0.217-0.212-0.435-0.422-0.657-0.629
		c-0.014-0.014-0.027-0.028-0.045-0.042l-5.823,6.241C90.376,42.162,94.56,51.091,94.56,61c0,2.662-0.302,5.253-0.874,7.743
		L83.107,43.021l-7.816,29.266V20.764c-2.745-1.037-5.621-1.803-8.6-2.261v76.326v8.668c0.295-0.046,0.589-0.095,0.883-0.147
		c0.169-0.028,0.34-0.062,0.51-0.093c0.119-0.022,0.237-0.047,0.354-0.069c0.219-0.043,0.438-0.087,0.653-0.133
		c0.031-0.006,0.063-0.015,0.093-0.021c0.25-0.056,0.5-0.106,0.749-0.166c1.999-0.468,3.944-1.073,5.825-1.812l8.633-32.312
		l8.335,20.264c2.247-2.618,4.185-5.505,5.756-8.608c0.178-0.349,0.349-0.697,0.515-1.05c0.021-0.045,0.042-0.09,0.063-0.137
		c0.148-0.313,0.288-0.627,0.428-0.945c0.026-0.056,0.05-0.112,0.075-0.169c0.138-0.321,0.275-0.645,0.405-0.968
		c0.019-0.043,0.036-0.086,0.052-0.129c0.448-1.114,0.851-2.249,1.204-3.409c0.021-0.063,0.038-0.127,0.056-0.189
		c0.095-0.311,0.184-0.623,0.271-0.938c0.026-0.098,0.054-0.192,0.078-0.288c0.077-0.286,0.151-0.574,0.223-0.867
		c0.026-0.104,0.053-0.208,0.075-0.312c0.072-0.296,0.139-0.594,0.203-0.894c0.02-0.094,0.041-0.184,0.06-0.276
		c0.08-0.373,0.153-0.747,0.223-1.129c0.003-0.014,0.005-0.024,0.009-0.038c0.068-0.4,0.136-0.799,0.196-1.204
		c0.014-0.08,0.021-0.162,0.034-0.244c0.044-0.311,0.086-0.619,0.126-0.931c0.014-0.132,0.027-0.265,0.044-0.396
		c0.028-0.265,0.06-0.532,0.082-0.796c0.014-0.148,0.027-0.293,0.042-0.442c0.021-0.259,0.039-0.517,0.056-0.775
		c0.013-0.148,0.021-0.294,0.028-0.444c0.016-0.276,0.027-0.552,0.036-0.83c0.006-0.128,0.012-0.256,0.016-0.384
		c0.014-0.406,0.02-0.812,0.02-1.218C103.098,60.621,103.091,60.243,103.082,59.867z"/>
</g>
</svg>
