<?xml version="1.0" encoding="utf-8"?>
<!-- Generator: Adobe Illustrator 16.0.0, SVG Export Plug-In . SVG Version: 6.00 Build 0)  -->
<!DOCTYPE svg PUBLIC "-//W3C//DTD SVG 1.1//EN" "http://www.w3.org/Graphics/SVG/1.1/DTD/svg11.dtd">
<svg version="1.1" xmlns="http://www.w3.org/2000/svg" xmlns:xlink="http://www.w3.org/1999/xlink" x="0px" y="0px" width="180px"
	 height="180px" viewBox="-30 -30 180 180" enable-background="new -30 -30 180 180" xml:space="preserve">
<g id="Layer_1">
	<g>
		<path d="M18.333,55.833v16.667c0,4.595,3.737,8.332,8.333,8.332c4.595,0,8.333-3.737,8.333-8.332V22.5H18.333V55.833z"/>
		<path d="M1.667,72.501v-8.334H-15v8.334C-15,86.286-3.785,97.5,10,97.5c2.921,0,5.725-0.506,8.333-1.43
			C8.633,92.631,1.667,83.364,1.667,72.501z"/>
		<polygon points="118.333,22.5 101.667,60 101.667,22.5 84.999,22.5 68.335,60 68.335,22.5 51.667,22.5 51.667,97.5 68.335,97.5 
			84.999,60 84.999,97.5 101.667,97.5 135,22.5 		"/>
	</g>
</g>
<g id="Layer_2">
</g>
</svg>
