<?xml version="1.0" encoding="utf-8"?>
<!-- Generator: Adobe Illustrator 16.0.0, SVG Export Plug-In . SVG Version: 6.00 Build 0)  -->
<!DOCTYPE svg PUBLIC "-//W3C//DTD SVG 1.1//EN" "http://www.w3.org/Graphics/SVG/1.1/DTD/svg11.dtd">
<svg version="1.1" id="Layer_1" xmlns="http://www.w3.org/2000/svg" xmlns:xlink="http://www.w3.org/1999/xlink" x="0px" y="0px"
	 width="180px" height="180px" viewBox="-30 -30 180 180" enable-background="new -30 -30 180 180" xml:space="preserve">
<path d="M111.976,11.7v58.8c0,14.764-12.012,26.774-26.778,26.774c-6.989,0-13.361-2.695-18.137-7.096
	c0.565-0.925,1.093-1.874,1.576-2.845c4.269,4.198,10.115,6.794,16.561,6.794c13.029,0,23.625-10.597,23.625-23.625V11.7H97.801
	v58.8c0,6.947-5.653,12.601-12.602,12.601c-6.945,0-12.599-5.654-12.599-12.601V11.7H61.574v58.8
	c0,14.764-12.01,26.774-26.774,26.774c-6.992,0-13.364-2.695-18.137-7.096c0.564-0.925,1.091-1.874,1.577-2.845
	c4.266,4.198,10.114,6.794,16.56,6.794c13.027,0,23.625-10.597,23.625-23.625V11.7H47.4v58.8c0,6.947-5.654,12.601-12.6,12.601
	c-6.949,0-12.601-5.655-12.601-12.601V11.7H-3v58.8c0,20.845,16.958,37.801,37.8,37.801c9.673,0,18.507-3.655,25.2-9.652
	c6.693,5.997,15.527,9.652,25.199,9.652C106.043,108.301,123,91.345,123,70.5V11.7H111.976z"/>
</svg>
