<?xml version="1.0" encoding="utf-8"?>
<!-- Generator: Adobe Illustrator 16.0.0, SVG Export Plug-In . SVG Version: 6.00 Build 0)  -->
<!DOCTYPE svg PUBLIC "-//W3C//DTD SVG 1.1//EN" "http://www.w3.org/Graphics/SVG/1.1/DTD/svg11.dtd">
<svg version="1.1" id="Layer_1" xmlns="http://www.w3.org/2000/svg" xmlns:xlink="http://www.w3.org/1999/xlink" x="0px" y="0px"
	 width="120px" height="120px" viewBox="0 0 120 120" enable-background="new 0 0 120 120" xml:space="preserve">
<rect fill="#333333" width="120" height="120"/>
<path fill="#FFFFFF" d="M81.553,62.21v30.949c0,1.219-0.992,2.207-2.212,2.207h-4.973V81.553h-6.633v13.813h-4.973
	c-1.221,0-2.209-0.99-2.209-2.209V62.21h-6.633v30.949c0,4.874,3.967,8.841,8.845,8.841h16.577c4.878,0,8.846-3.967,8.846-8.841
	V62.21H81.553z"/>
<path fill="#FFFFFF" d="M64.975,71.053c0,1.219-0.991,2.211-2.211,2.211h-1.104v6.632h1.104c4.874,0,8.841-3.969,8.841-8.844V46.737
	h5.529v-6.631H42.869v6.63h22.106V71.053z"/>
<path fill="#FFFFFF" d="M52.816,73.264H51.71c-1.218,0-2.211-0.992-2.211-2.211v-8.844h-6.63v8.844c0,4.874,3.967,8.843,8.843,8.843
	h1.106L52.816,73.264L52.816,73.264z"/>
<polygon fill="#FFFFFF" points="53.92,39 60.555,39 60.555,24.63 66.079,24.63 66.079,18 31.814,18 31.814,24.63 53.92,24.63 "/>
<path fill="#FFFFFF" d="M60.555,48.949v-1.105H53.92v1.105c0,1.218-0.991,2.209-2.21,2.209H40.657c-1.219,0-2.21-0.991-2.21-2.209
	v-8.844h-6.633v8.843c0,4.875,3.968,8.842,8.844,8.842H51.71C56.586,57.79,60.555,53.821,60.555,48.949z"/>
</svg>
