<?xml version="1.0" encoding="utf-8"?>
<!-- Generator: Adobe Illustrator 16.0.0, SVG Export Plug-In . SVG Version: 6.00 Build 0)  -->
<!DOCTYPE svg PUBLIC "-//W3C//DTD SVG 1.1//EN" "http://www.w3.org/Graphics/SVG/1.1/DTD/svg11.dtd">
<svg version="1.1" id="Layer_1" xmlns="http://www.w3.org/2000/svg" xmlns:xlink="http://www.w3.org/1999/xlink" x="0px" y="0px"
	 width="240px" height="600px" viewBox="0 0 240 600" enable-background="new 0 0 240 600" xml:space="preserve">
<g>
	<path d="M78.333,295.834v16.667c0,4.594,3.738,8.332,8.334,8.332c4.594,0,8.333-3.738,8.333-8.332V262.5H78.333V295.834z"/>
	<path d="M61.667,312.501v-8.335H45v8.335c0,13.784,11.216,24.999,25,24.999c2.921,0,5.725-0.506,8.333-1.43
		C68.634,332.631,61.667,323.364,61.667,312.501z"/>
	<polygon points="178.333,262.5 161.666,300 161.666,262.5 144.999,262.5 128.335,300 128.335,262.5 111.667,262.5 111.667,337.5 
		128.335,337.5 144.999,300 144.999,337.5 161.666,337.5 195,262.5 	"/>
</g>
<g>
	<path d="M154.636,123.552v49.739c0,1.958-1.594,3.548-3.554,3.548h-7.992v-22.201h-10.66v22.201h-7.992
		c-1.961,0-3.551-1.592-3.551-3.551v-49.736h-10.659v49.739c0,7.834,6.375,14.209,14.214,14.209h26.643
		c7.838,0,14.216-6.375,14.216-14.209v-49.739H154.636z"/>
	<g>
		<path d="M127.993,137.763c0,1.96-1.594,3.554-3.554,3.554h-1.775v10.659h1.775c7.834,0,14.209-6.378,14.209-14.214V98.685h8.886
			V88.028H92.465v10.655h35.528V137.763z"/>
		<path d="M108.453,141.316h-1.778c-1.958,0-3.554-1.594-3.554-3.554v-14.212H92.465v14.212c0,7.834,6.375,14.212,14.211,14.212
			h1.778v-10.659H108.453z"/>
	</g>
	<g>
		<polygon points="110.227,86.25 120.888,86.25 120.888,63.155 129.769,63.155 129.769,52.5 74.699,52.5 74.699,63.155 
			110.227,63.155 		"/>
		<path d="M120.888,102.239v-1.777h-10.662v1.777c0,1.958-1.592,3.549-3.552,3.549H88.91c-1.958,0-3.551-1.592-3.551-3.549V88.025
			h-10.66v14.212c0,7.834,6.376,14.21,14.212,14.21h17.764C114.51,116.448,120.888,110.07,120.888,102.239z"/>
	</g>
</g>
<path d="M171.976,431.699V490.5c0,14.764-12.012,26.774-26.778,26.774c-6.989,0-13.361-2.695-18.137-7.096
	c0.565-0.925,1.093-1.874,1.576-2.845c4.269,4.198,10.115,6.794,16.561,6.794c13.029,0,23.625-10.597,23.625-23.625v-58.804h-11.021
	V490.5c0,6.947-5.653,12.601-12.602,12.601c-6.945,0-12.599-5.654-12.599-12.601v-58.801h-11.026V490.5
	c0,14.764-12.01,26.774-26.774,26.774c-6.992,0-13.364-2.695-18.137-7.096c0.564-0.925,1.091-1.874,1.577-2.845
	c4.266,4.198,10.114,6.794,16.56,6.794c13.027,0,23.625-10.597,23.625-23.625v-58.804H107.4V490.5c0,6.947-5.654,12.601-12.6,12.601
	c-6.949,0-12.601-5.655-12.601-12.601v-58.801H57V490.5c0,20.845,16.958,37.801,37.8,37.801c9.673,0,18.507-3.655,25.2-9.652
	c6.693,5.997,15.527,9.652,25.199,9.652c20.844,0,37.801-16.956,37.801-37.801v-58.801H171.976z"/>
</svg>
